<svg xmlns="http://www.w3.org/2000/svg" xmlns:xlink="http://www.w3.org/1999/xlink" width="960" height="800"><g transform="translate(0 0)"><path d="M0 0h960v800H0z" fill="#fff"/><path d="M419.07 80c15.56 0 28.17 15.67 28.17 35s-12.6 35-28.17 35h-84.52c-15.56 0-28.17-15.67-28.17-35s12.6-35 28.17-35z" fill="#d6d6d6"/><use xlink:href="#a" transform="matrix(1,0,0,1,311.3803680981596,85) translate(42.6044921875 35.396484375)"/><path d="M306.38 196.6h140.86v70.07H306.38z" fill="#d6d6d6"/><use xlink:href="#b" transform="matrix(1,0,0,1,311.38036809815947,201.59039168464767) translate(44.107421875 24.875)"/><use xlink:href="#c" transform="matrix(1,0,0,1,311.38036809815947,201.59039168464767) translate(33.7978515625 47.375)"/><path d="M376.8 313.33l70.44 58.34L376.8 430l-70.42-58.33z" fill="#d6d6d6"/><use xlink:href="#d" transform="matrix(1,0,0,1,311.38036809815947,318.33333333333337) translate(49.62255859375 47.875)"/><use xlink:href="#e" transform="matrix(1,0,0,1,311.38036809815947,318.33333333333337) translate(68.95849609375 47.875)"/><use xlink:href="#f" transform="matrix(1,0,0,1,311.38036809815947,318.33333333333337) translate(30.26904296875 70.375)"/><path d="M80 336.67h140.86v70H80z" fill="#d6d6d6"/><use xlink:href="#g" transform="matrix(1,0,0,1,85,341.6666666666667) translate(40.5390625 24.375)"/><use xlink:href="#h" transform="matrix(1,0,0,1,85,341.6666666666667) translate(27.6630859375 46.875)"/><path d="M542.82 336.67h140.86v70H542.82z" fill="#d6d6d6"/><use xlink:href="#i" transform="matrix(1,0,0,1,547.8220858895705,341.6666666666667) translate(29.5087890625 24.375)"/><use xlink:href="#j" transform="matrix(1,0,0,1,547.8220858895705,341.6666666666667) translate(76.7939453125 24.375)"/><use xlink:href="#h" transform="matrix(1,0,0,1,547.8220858895705,341.6666666666667) translate(27.6630859375 46.875)"/><path d="M447.24 371.67h94.7" stroke="#80ccec" stroke-width="2" fill="none"/><path d="M447.24 372.67h-1.2l1.2-1-1.2-1h1.2zM541.94 371.67l-14.26 4.63v-9.27z" fill="#80ccec"/><path d="M542.82 370.9v1.53l-16.14 5.25v-12.03zm-14.14 4.03l10.03-3.26-10.02-3.26z" fill="#80ccec"/><path fill="#fff" d="M468.92 360.42h28.8v22.5h-28.8z"/><use xlink:href="#k" transform="matrix(1,0,0,1,468.9211859175638,360.4166666666667) translate(0 16.875)"/><path d="M306.38 371.67h-84.64" stroke="#80ccec" stroke-width="2" fill="none"/><path d="M306.38 371.67l1.2 1h-1.2v-2h1.2zM236 376.3l-14.26-4.63 14.27-4.64z" fill="#80ccec"/><path d="M237 377.68l-16.14-5.25v-1.53l16.15-5.25zm-12.02-6l10.03 3.25v-6.52z" fill="#80ccec"/><path fill="#fff" d="M259.98 360.42h24.83v22.5H260z"/><use xlink:href="#l" transform="matrix(1,0,0,1,259.9791691911312,360.4166666666667) translate(0 16.875)"/><path d="M613.25 476.67L683.68 535l-70.43 58.33L542.82 535z" fill="#d6d6d6"/><use xlink:href="#m" transform="matrix(1,0,0,1,547.8220858895705,481.6666666666667) translate(32.1806640625 47.875)"/><use xlink:href="#n" transform="matrix(1,0,0,1,547.8220858895705,481.6666666666667) translate(66.5546875 47.875)"/><use xlink:href="#o" transform="matrix(1,0,0,1,547.8220858895705,481.6666666666667) translate(35.06787109375 70.375)"/><use xlink:href="#p" transform="matrix(1,0,0,1,547.8220858895705,481.6666666666667) translate(74.51318359375 70.375)"/><path d="M613.25 406.67v68.56" stroke="#80ccec" stroke-width="2" fill="none"/><path d="M613.25 475.23l-4.63-14.26h9.27z" fill="#80ccec"/><path d="M613.7 477.05l-.45-.38-.46.38-5.56-17.08h12.02zm-3.7-15.08l3.25 10.03 3.26-10.03z" fill="#80ccec"/><path d="M419.07 500c15.56 0 28.17 15.67 28.17 35s-12.6 35-28.17 35h-84.52c-15.56 0-28.17-15.67-28.17-35s12.6-35 28.17-35z" fill="#d6d6d6"/><use xlink:href="#q" transform="matrix(1,0,0,1,311.3803680981596,505) translate(38.78564453125 35.625)"/><path d="M376.8 150v45.42" stroke="#80ccec" stroke-width="2" fill="none"/><path d="M376.8 195.42l-4.63-14.26h9.28z" fill="#80ccec"/><path d="M377.48 196.6h-1.34l-5.34-16.44h12.02zm-3.93-14.44l3.26 10.03 3.27-10.04z" fill="#80ccec"/><path d="M376.8 266.67v45.23" stroke="#80ccec" stroke-width="2" fill="none"/><path d="M376.8 311.9l-4.63-14.27h9.28z" fill="#80ccec"/><path d="M377.27 313.72l-.46-.4-.45.4-5.55-17.1h12.02zm-3.72-15.1l3.26 10.04 3.27-10.03z" fill="#80ccec"/><path d="M542.82 535h-94.57" stroke="#80ccec" stroke-width="2" fill="none"/><path d="M542.82 535l1.2 1h-1.2v-2h1.2zM462.5 539.64L448.26 535l14.26-4.64z" fill="#80ccec"/><path d="M463.5 541l-16.3-5.3.04-.7-.05-.7 16.3-5.3zm-12.02-6l10.03 3.26v-6.52z" fill="#80ccec"/><path fill="#fff" d="M496.33 523.75h28.8v22.5h-28.8z"/><use xlink:href="#k" transform="matrix(1,0,0,1,496.3336848761435,523.75) translate(0 16.875)"/><path d="M150.43 406.67V535h155.95" stroke="#80ccec" stroke-width="2" fill="none"/><path d="M306.38 535l-14.27 4.64v-9.28z" fill="#80ccec"/><path d="M306.45 533.97l-.07 1.03.07 1.03L291.1 541v-12zm-13.34 4.3l10.04-3.27-10.03-3.26z" fill="#80ccec"/><path d="M829.57 476.67L900 535l-70.43 58.33L759.14 535z" fill="#d6d6d6"/><use xlink:href="#d" transform="matrix(1,0,0,1,764.1411042944785,481.6666666666667) translate(31.75 47.875)"/><use xlink:href="#r" transform="matrix(1,0,0,1,764.1411042944785,481.6666666666667) translate(51.0859375 47.875)"/><use xlink:href="#s" transform="matrix(1,0,0,1,764.1411042944785,481.6666666666667) translate(68.0048828125 47.875)"/><use xlink:href="#f" transform="matrix(1,0,0,1,764.1411042944785,481.6666666666667) translate(30.26904296875 70.375)"/><path d="M683.68 535h73.73" stroke="#80ccec" stroke-width="2" fill="none"/><path d="M683.68 536h-1.2l1.2-1-1.2-1h1.2zM757.4 535l-14.26 4.64v-9.28z" fill="#80ccec"/><path d="M759.57 534.65l-.43.35.43.35-17.43 5.66v-12zm-15.43 3.6l10.03-3.25-10.03-3.26z" fill="#80ccec"/><path fill="#fff" d="M698.58 523.75h24.83v22.5H698.6z"/><use xlink:href="#l" transform="matrix(1,0,0,1,698.5791525284062,523.75) translate(0 16.875)"/><path d="M829.57 476.67v-105h-145.9" stroke="#80ccec" stroke-width="2" fill="none"/><path d="M830.57 477.5l-1-.83-1 .82v-.83h2zM697.95 376.3l-14.27-4.63 14.27-4.64z" fill="#80ccec"/><path d="M698.95 377.68l-15.27-4.96v-2.1l15.27-4.97zm-12.03-6l10.03 3.25v-6.52z" fill="#80ccec"/><path fill="#fff" d="M815.17 429.63h28.8v22.5h-28.8z"/><use xlink:href="#k" transform="matrix(1,0,0,1,815.1740677722393,429.6343582504901) translate(0 16.875)"/><path d="M542.82 649.33h140.86V724H542.82z" fill="#d6d6d6"/><g><use xlink:href="#g" transform="matrix(1,0,0,1,547.8220858895705,654.3333333333333) translate(40.5390625 26.875)"/><use xlink:href="#h" transform="matrix(1,0,0,1,547.8220858895705,654.3333333333333) translate(27.6630859375 49.375)"/></g><path d="M829.57 593.33v93.34h-145.9" stroke="#80ccec" stroke-width="2" fill="none"/><path d="M829.57 593.33h-1v-.82zm1 0h-1l1-.82zM697.95 691.3l-14.27-4.63 14.27-4.64z" fill="#80ccec"/><path d="M698.95 692.68l-15.27-4.96v-2.1l15.27-4.97zm-12.03-6l10.03 3.25v-6.52z" fill="#80ccec"/><path fill="#fff" d="M817.16 620.76H842v22.5h-24.84z"/><g><use xlink:href="#l" transform="matrix(1,0,0,1,817.1560013659893,620.7603926561428) translate(0 16.875)"/></g><path d="M542.82 686.67h-166V570" stroke="#80ccec" stroke-width="2" fill="none"/><path d="M381.45 584.27h-9.28L376.8 570z" fill="#80ccec"/><path d="M382.82 585.27H370.8l4.96-15.27h2.1zm-9.27-2h6.52l-3.26-10.03z" fill="#80ccec"/><defs><path fill="#3d4752" d="M865-4C638 58 321 15 144-63v-369h123l80 223c63 75 167 107 304 104 158-4 267-78 267-241 0-148-127-205-230-268-184-113-406-196-508-388-41-77-48-195-14-282 73-182 247-283 492-283 166 0 330 23 442 74v308H970l-87-202c-47-37-129-54-212-54-142 0-256 58-256 203 0 193 177 255 311 334 174 103 377 181 454 377 37 95 20 218-22 300C1100-116 998-41 865-4" id="t"/><path fill="#3d4752" d="M480 24c-205 5-263-128-263-333v-654H65v-97c97-17 172-42 207-123 26-61 55-133 75-203h138v267h339v156H494c2 198-8 442 4 627 7 104 12 184 116 184 70 0 140-16 187-41l43 103C765-15 630 20 480 24" id="u"/><path fill="#3d4752" d="M782-96C712-29 615 28 474 26c-200-2-332-84-370-242-23-98-1-201 48-258 123-144 344-202 599-212 11-194-53-300-239-294-126 4-231 38-314 82l-54-127c109-77 275-119 461-121 275-3 431 112 431 392l-1 640h129v89c-57 35-138 51-229 51-86 0-156-29-153-122zm-32-109c0-118 1-232 1-350-160 3-294 40-351 147-12 23-18 49-18 80-1 143 80 199 225 189 60-5 106-38 143-66" id="v"/><path fill="#3d4752" d="M906-868c-90-60-298-53-377 10v714l255 30V0H104v-114l140-24v-725l-139-88v-98l325-97 61 19v178c38-90 132-147 227-181 58-21 130-19 188-6v268" id="w"/><g id="a"><use transform="matrix(0.0087890625,0,0,0.0087890625,0,0)" xlink:href="#t"/><use transform="matrix(0.0087890625,0,0,0.0087890625,11.232421875,0)" xlink:href="#u"/><use transform="matrix(0.0087890625,0,0,0.0087890625,19.1162109375,0)" xlink:href="#v"/><use transform="matrix(0.0087890625,0,0,0.0087890625,29.583984375,0)" xlink:href="#w"/><use transform="matrix(0.0087890625,0,0,0.0087890625,37.9072265625,0)" xlink:href="#u"/></g><path fill="#3d4752" d="M87-95l154-31v-1266l-156-20v-119h551v119l-199 20-2 1269 570-23 150-188 87 43-95 291H87v-95" id="x"/><path fill="#3d4752" d="M786-16c-125 59-317 59-439 4C162-95 72-285 76-550c5-286 137-472 336-566 125-59 319-60 441-6 188 83 273 274 269 541-4 287-137 472-336 565zm-328-98c77 47 202 46 280 2 243-137 231-770 2-906-78-46-202-46-280-2-243 138-229 767-2 906" id="y"/><path fill="#3d4752" d="M46-95l164-21v-1364l-180-34v-89l332-28 40 17v1056l432-423-157-20v-129h499v129l-161 21-350 320 429 544 132 21V0H721v-95l137-21-315-442-141 142v300l174 21V0H46v-95" id="z"/><g id="b"><use transform="matrix(0.0087890625,0,0,0.0087890625,0,0)" xlink:href="#x"/><use transform="matrix(0.0087890625,0,0,0.0087890625,11.07421875,0)" xlink:href="#y"/><use transform="matrix(0.0087890625,0,0,0.0087890625,21.603515625,0)" xlink:href="#y"/><use transform="matrix(0.0087890625,0,0,0.0087890625,32.1328125,0)" xlink:href="#z"/></g><path fill="#3d4752" d="M889-114C782-26 589 58 400 4 203-53 185-260 185-523v-475l-104-23v-97l262-32 35 18v641c3 211 6 383 219 377 121-4 194-50 276-90v-784l-168-33v-98l333-31 28 17v1022h143v76c-56 26-132 51-210 53-81 2-109-54-110-132" id="A"/><path fill="#3d4752" d="M737-71c-74 54-176 95-299 98-180 4-251-98-251-274 0-249 10-498 15-748H67v-85c114-47 176-159 231-267h89v217h334v135H388c-6 228-22 492 0 710 10 100 20 178 137 169 66-5 141-23 190-39" id="B"/><path fill="#3d4752" d="M119-267h76C218-107 378-59 563-87c94-14 154-69 154-179 0-147-165-178-274-236-113-60-227-124-281-240-37-78-25-190 18-255 91-138 327-183 547-149 54 9 96 23 126 40v226h-72c-34-106-107-166-240-170-128-3-217 36-217 159 0 139 134 175 235 225 117 58 245 112 309 222 44 76 29 197-5 276C769 50 354 82 119-38v-229" id="C"/><path fill="#3d4752" d="M90-95l150-21v-801l-139-73v-91l286-69 45 20v1014l158 21V0H90v-95zm374-1405c0 90-71 136-160 136-77 0-136-43-136-121 0-87 72-144 159-144 84 0 137 48 137 129" id="D"/><path fill="#3d4752" d="M873-106C773 7 506 65 335-24 168-111 77-291 77-540c0-264 131-430 295-538 75-50 168-82 283-84 76-2 149 18 197 33v-351l-210-34v-89l362-28 40 17c0 498 0 996-1 1493h154v86c-63 29-147 53-239 53-63 0-82-59-85-124zM275-609c2 281 76 501 356 501 103 0 161-48 221-94v-722c-47-66-118-129-230-129-170 0-263 123-316 259-21 55-31 116-31 185" id="E"/><path fill="#3d4752" d="M953-89C849 28 565 71 378-2 180-79 78-252 76-526c-2-250 104-420 250-532 100-78 293-139 452-81 198 72 270 317 233 591H267c12 267 127 445 393 445 99 0 195-27 264-59zM811-661c9-212-24-391-230-391-163 0-248 120-291 249-16 46-21 94-18 142h539" id="F"/><g id="c"><use transform="matrix(0.0087890625,0,0,0.0087890625,0,0)" xlink:href="#y"/><use transform="matrix(0.0087890625,0,0,0.0087890625,10.529296875,0)" xlink:href="#A"/><use transform="matrix(0.0087890625,0,0,0.0087890625,21.708984375,0)" xlink:href="#B"/><use transform="matrix(0.0087890625,0,0,0.0087890625,28.6171875,0)" xlink:href="#C"/><use transform="matrix(0.0087890625,0,0,0.0087890625,37.265625,0)" xlink:href="#D"/><use transform="matrix(0.0087890625,0,0,0.0087890625,42.7763671875,0)" xlink:href="#E"/><use transform="matrix(0.0087890625,0,0,0.0087890625,53.736328125,0)" xlink:href="#F"/></g><path fill="#3d4752" d="M94-95l161-29v-1271l-163-17v-119h530v119l-173 17v1272l172 28V0H94v-95" id="G"/><g id="d"><use transform="matrix(0.0087890625,0,0,0.0087890625,0,0)" xlink:href="#G"/><use transform="matrix(0.0087890625,0,0,0.0087890625,6.1875,0)" xlink:href="#C"/></g><g id="e"><use transform="matrix(0.0087890625,0,0,0.0087890625,0,0)" xlink:href="#D"/><use transform="matrix(0.0087890625,0,0,0.0087890625,5.5107421875,0)" xlink:href="#B"/></g><path fill="#3d4752" d="M675-973c-98-11-173 10-238 54v803l275 21V0H71v-95l174-21v-801l-139-74v-90l261-69 47 20-1 135c75-74 174-145 301-145 39 0 79 4 103 19l-10 179c-36-15-81-25-132-31" id="H"/><path fill="#3d4752" d="M696-772c2-176-90-253-264-251-116 2-215 43-293 81l-29-84c91-74 235-129 397-129 244 0 382 106 382 352l-2 682h152v86C980-9 900 18 819 18c-82 0-109-57-109-137C606-32 393 65 214-12 116-54 66-154 66-294c0-213 209-271 389-320 75-20 161-28 241-31v-127zM266-326c3 130 61 227 210 200 78-14 163-29 218-62l2-356c-172 5-319 44-399 136-22 25-31 53-31 82" id="I"/><path fill="#3d4752" d="M948-646c1-208-29-374-246-358-107 8-198 39-271 84-1 268-3 535-3 804l162 21V0H81v-95l156-21v-801L95-990v-91l266-69 45 20v138c119-98 335-209 544-138 164 55 190 247 190 479v535l171 21V0H782v-95l166-21v-530" id="J"/><path fill="#3d4752" d="M919-1059c104 81 152 304 75 449-85 161-295 242-543 212-33-4-63-14-92-25-40 34-79 87-85 151-9 92 67 95 155 93 349-4 713-19 700 327-8 214-165 311-344 362-68 20-142 28-221 28-268-3-474-72-474-324C90 97 167 39 229-20 150-40 92-87 100-190c9-127 103-205 172-277-88-57-152-151-152-284 0-275 203-395 472-410 111-6 196 19 266 58 56-58 125-109 228-109 19 0 51-2 50 17v136H919zm14 1255C946-76 618-8 360-20c-45 45-83 111-77 203 11 181 137 264 338 261 178-3 303-72 312-248zM316-770c-2 170 86 280 257 278s264-94 264-263c0-184-78-306-260-306-177 0-259 114-261 291" id="K"/><path fill="#3d4752" d="M150-1790c78-61 241-55 344-18 218 79 364 248 418 486 17 77 32 171-14 221-76 80-219 104-314 165-24 14-42 30-53 49-1 152 60 272 94 396H520c-73-65-145-173-186-272-24-58-48-103-9-147 107-120 306-164 455-242 14-8 21-14 21-19-46-206-194-334-371-409-81-34-176-51-280-31v-179zM637 32C505 87 395-45 456-178c26-53 67-96 142-99 142-6 180 192 89 275-15 14-31 26-50 34" id="L"/><g id="f"><use transform="matrix(0.0087890625,0,0,0.0087890625,0,0)" xlink:href="#H"/><use transform="matrix(0.0087890625,0,0,0.0087890625,7.4443359375,0)" xlink:href="#I"/><use transform="matrix(0.0087890625,0,0,0.0087890625,16.7255859375,0)" xlink:href="#D"/><use transform="matrix(0.0087890625,0,0,0.0087890625,22.236328125,0)" xlink:href="#J"/><use transform="matrix(0.0087890625,0,0,0.0087890625,33.9873046875,0)" xlink:href="#D"/><use transform="matrix(0.0087890625,0,0,0.0087890625,39.498046875,0)" xlink:href="#J"/><use transform="matrix(0.0087890625,0,0,0.0087890625,51.2490234375,0)" xlink:href="#K"/><use transform="matrix(0.0087890625,0,0,0.0087890625,61.4619140625,0)" xlink:href="#L"/></g><path fill="#3d4752" d="M109-1007L7-1024v-106h441v106l-119 19 208 546 81 302 97-290 223-558-140-18v-107h398v106l-106 20L659 29H528" id="M"/><g id="g"><use transform="matrix(0.0087890625,0,0,0.0087890625,0,0)" xlink:href="#x"/><use transform="matrix(0.0087890625,0,0,0.0087890625,11.07421875,0)" xlink:href="#F"/><use transform="matrix(0.0087890625,0,0,0.0087890625,20.7421875,0)" xlink:href="#I"/><use transform="matrix(0.0087890625,0,0,0.0087890625,29.830078125,0)" xlink:href="#M"/><use transform="matrix(0.0087890625,0,0,0.0087890625,40.25390625,0)" xlink:href="#F"/></g><path fill="#3d4752" d="M1359-1003c-92 5-190 25-245 72v815l161 21V0H759v-95l163-21c-1-204-2-445-2-640 0-185-77-272-272-242-83 12-168 38-225 78-1 268-1 536-2 804l156 21V0H67v-95l163-21v-801L88-990v-90l266-67 45 17v138c102-78 228-158 400-158 151 0 228 45 279 146 84-83 208-140 367-146 309-14 336 221 336 527v507l181 21V0h-532v-95l159-26v-417c-6-241 15-477-230-465" id="N"/><path fill="#3d4752" d="M371-1045c94-61 194-110 349-105 292 9 411 227 411 523 0 310-143 510-361 607-173 76-452 50-590-30-1-476-1-953-1-1430L9-1514v-89l322-28 40 17v569zm401 69c-122-75-307-19-401 48v761c62 29 129 57 211 57 264 0 359-170 359-443 0-192-49-349-169-423" id="O"/><path fill="#3d4752" d="M32-95l170-21v-1364l-180-34v-89l332-28 40 17v1498l179 21V0H32v-95" id="P"/><g id="h"><use transform="matrix(0.0087890625,0,0,0.0087890625,0,0)" xlink:href="#A"/><use transform="matrix(0.0087890625,0,0,0.0087890625,11.1796875,0)" xlink:href="#N"/><use transform="matrix(0.0087890625,0,0,0.0087890625,28.4853515625,0)" xlink:href="#O"/><use transform="matrix(0.0087890625,0,0,0.0087890625,39.1025390625,0)" xlink:href="#H"/><use transform="matrix(0.0087890625,0,0,0.0087890625,46.546875,0)" xlink:href="#F"/><use transform="matrix(0.0087890625,0,0,0.0087890625,56.21484375,0)" xlink:href="#P"/><use transform="matrix(0.0087890625,0,0,0.0087890625,61.3037109375,0)" xlink:href="#P"/><use transform="matrix(0.0087890625,0,0,0.0087890625,66.392578125,0)" xlink:href="#I"/></g><g id="i"><use transform="matrix(0.0087890625,0,0,0.0087890625,0,0)" xlink:href="#x"/><use transform="matrix(0.0087890625,0,0,0.0087890625,11.07421875,0)" xlink:href="#y"/><use transform="matrix(0.0087890625,0,0,0.0087890625,21.603515625,0)" xlink:href="#y"/><use transform="matrix(0.0087890625,0,0,0.0087890625,32.1328125,0)" xlink:href="#z"/></g><path fill="#3d4752" d="M65-95l171-21v-879H76v-76l160-59c-18-240 84-373 230-462 81-49 219-78 331-40l-34 174c-49-49-162-81-257-54-110 31-69 236-78 382h297v135H428v879l240 21V0H65v-95" id="Q"/><g id="j"><use transform="matrix(0.0087890625,0,0,0.0087890625,0,0)" xlink:href="#Q"/><use transform="matrix(0.0087890625,0,0,0.0087890625,6.7236328125,0)" xlink:href="#y"/><use transform="matrix(0.0087890625,0,0,0.0087890625,17.2529296875,0)" xlink:href="#H"/></g><path fill="#3d4752" d="M296-95l204-30v-479L58-1402l-106-24v-105h483v105l-154 24 291 566 52 131c103-239 222-463 332-695l-155-26v-105h446v105l-124 34-430 793v475l216 29V0H296v-95" id="R"/><g id="k"><use transform="matrix(0.0087890625,0,0,0.0087890625,0,0)" xlink:href="#R"/><use transform="matrix(0.0087890625,0,0,0.0087890625,10.4765625,0)" xlink:href="#F"/><use transform="matrix(0.0087890625,0,0,0.0087890625,20.14453125,0)" xlink:href="#C"/></g><path fill="#3d4752" d="M70-95l171-29v-1256l-149-32v-119h348l700 1073 128 262v-1188l-184-28v-118h489v118l-166 28V0h-194L521-1040l-136-261v1177l194 29V0H70v-95" id="S"/><g id="l"><use transform="matrix(0.0087890625,0,0,0.0087890625,0,0)" xlink:href="#S"/><use transform="matrix(0.0087890625,0,0,0.0087890625,14.2998046875,0)" xlink:href="#y"/></g><path fill="#3d4752" d="M70-95l152-32v-1255l-153-30v-119c232 4 467-9 686-9 468 0 708 254 708 723 0 399-178 655-463 775-194 82-435 23-674 32L70 0v-95zm625-1335c-102 0-186 2-275 17v1281c154 36 374 52 514-12 208-95 324-299 324-604 0-408-158-682-563-682" id="T"/><g id="m"><use transform="matrix(0.0087890625,0,0,0.0087890625,0,0)" xlink:href="#T"/><use transform="matrix(0.0087890625,0,0,0.0087890625,13.4033203125,0)" xlink:href="#D"/><use transform="matrix(0.0087890625,0,0,0.0087890625,18.9140625,0)" xlink:href="#E"/></g><path fill="#3d4752" d="M162 388c230-8 319-149 367-347-134-349-267-699-400-1048l-110-17v-106h473v106l-150 20c95 300 204 586 284 900 85-305 178-603 267-904l-163-16v-106h442v106l-106 16C921-603 797-171 623 209c-78 171-186 335-440 330" id="U"/><g id="n"><use transform="matrix(0.0087890625,0,0,0.0087890625,0,0)" xlink:href="#U"/><use transform="matrix(0.0087890625,0,0,0.0087890625,10.5556640625,0)" xlink:href="#y"/><use transform="matrix(0.0087890625,0,0,0.0087890625,21.0849609375,0)" xlink:href="#A"/></g><g id="o"><use transform="matrix(0.0087890625,0,0,0.0087890625,0,0)" xlink:href="#Q"/><use transform="matrix(0.0087890625,0,0,0.0087890625,6.7236328125,0)" xlink:href="#D"/><use transform="matrix(0.0087890625,0,0,0.0087890625,12.234375,0)" xlink:href="#J"/><use transform="matrix(0.0087890625,0,0,0.0087890625,23.9853515625,0)" xlink:href="#E"/></g><g id="p"><use transform="matrix(0.0087890625,0,0,0.0087890625,0,0)" xlink:href="#D"/><use transform="matrix(0.0087890625,0,0,0.0087890625,5.5107421875,0)" xlink:href="#B"/><use transform="matrix(0.0087890625,0,0,0.0087890625,12.4189453125,0)" xlink:href="#L"/></g><path fill="#3d4752" d="M87-95l154-31v-1260l-156-26v-119h993l45 257-107 30-61-155-520-7v571l411-9 40-132h100v415H880l-40-156-405-9v601l289 30V0H87v-95" id="V"/><path fill="#3d4752" d="M696-1003c-118 5-219 47-297 99v788l166 21V0H54v-95l153-21v-1364l-190-34v-89l342-28 40 17v622c95-75 210-152 373-158 309-11 353 218 353 527v507l173 21V0H760v-95l173-21v-422c-3-241 9-475-237-465" id="W"/><g id="q"><use transform="matrix(0.0087890625,0,0,0.0087890625,0,0)" xlink:href="#V"/><use transform="matrix(0.0087890625,0,0,0.0087890625,10.4501953125,0)" xlink:href="#D"/><use transform="matrix(0.0087890625,0,0,0.0087890625,15.9609375,0)" xlink:href="#J"/><use transform="matrix(0.0087890625,0,0,0.0087890625,27.7119140625,0)" xlink:href="#D"/><use transform="matrix(0.0087890625,0,0,0.0087890625,33.22265625,0)" xlink:href="#C"/><use transform="matrix(0.0087890625,0,0,0.0087890625,41.87109375,0)" xlink:href="#W"/></g><g id="r"><use transform="matrix(0.0087890625,0,0,0.0087890625,0,0)" xlink:href="#D"/><use transform="matrix(0.0087890625,0,0,0.0087890625,5.5107421875,0)" xlink:href="#B"/></g><g id="s"><use transform="matrix(0.0087890625,0,0,0.0087890625,0,0)" xlink:href="#C"/><use transform="matrix(0.0087890625,0,0,0.0087890625,8.6484375,0)" xlink:href="#B"/><use transform="matrix(0.0087890625,0,0,0.0087890625,15.556640625,0)" xlink:href="#D"/><use transform="matrix(0.0087890625,0,0,0.0087890625,21.0673828125,0)" xlink:href="#P"/><use transform="matrix(0.0087890625,0,0,0.0087890625,26.15625,0)" xlink:href="#P"/></g></defs></g></svg>